<svg width="75" height="75" viewBox="0 0 53 53" fill="none" xmlns="http://www.w3.org/2000/svg">
<path d="M35 23.8599L30.6619 28.198L22.7447 20.2808L12.5692 32.4084C11.2895 33.9486 9.42408 34.9031 7.42854 34.9898C5.45479 35.0982 3.48082 34.3391 2.07088 32.9291C0.660937 31.5192 -0.0981765 29.5453 0.0102099 27.5715C0.096919 25.576 1.05144 23.7106 2.59154 22.4308L14.7192 12.2554L6.80195 4.33813L11.1401 0L16.0857 0.607375L34.653 19.1747L35 23.8599Z" transform="translate(0 18)" fill="#FEA832"/>
<path d="M32.6522 9.69775L33 14.5241L28.6525 18.993L20.7183 10.8371L10.5209 23.3303C9.23841 24.9169 7.36903 25.9002 5.3692 25.9895C3.39119 26.1011 1.41298 25.3191 0 23.8667L23.2182 0L32.6522 9.69775Z" transform="translate(2 27)" fill="#FE9923"/>
<path d="M28.8667 24.5384L24.4257 29L0 4.46149L4.44109 0L9.99238 1.11543L29 20.2108L28.8667 24.5384Z" transform="translate(11 13)" fill="#EFE6DE"/>
<path d="M16.8651 14.5293L12.3676 19L0 6.70583L6.74596 0L17 10.1929L16.8651 14.5293Z" transform="translate(23 23)" fill="#DFCCBF"/>
<path d="M37 23.9412L23.9412 37L0 13.0588L13.0588 0L17.4117 4.3529L16.3235 7.61763L19.5882 6.52946L21.7647 8.70591L20.6765 11.9706L23.9412 10.8824L27.8806 14.8218L26.3788 19.3271L30.8841 17.8252L37 23.9412Z" transform="translate(16)" fill="#FC4629"/>
<path d="M25 11.9565L11.9566 25L0 13.0434L13.0434 0L15.8913 2.84781L14.3913 7.34779L18.8913 5.84769L25 11.9565Z" transform="translate(28 12)" fill="#FF2615"/>
<path d="M0 0H7.69213V3.05082H0V0Z" transform="translate(28.0144 9.45947) rotate(-45)" fill="#BF0000"/>
<path d="M0 0H7.69213V3.05082H0V0Z" transform="translate(32.3655 13.774) rotate(-45)" fill="#BF0000"/>
</svg>
