<svg width="75" height="75" viewBox="0 0 88 62" fill="none" xmlns="http://www.w3.org/2000/svg">
<path d="M0 0H54V15H0V0Z" transform="translate(0 33)" fill="#B11E48"/>
<path d="M0 0H54V33H0V0Z" fill="#E9686A"/>
<path d="M0 0H27L33 12V42H0V0Z" transform="translate(54 6)" fill="#FDBD40"/>
<path d="M19.6182 12.1905H0V0H16.6L19.6182 6.09524V12.1905Z" transform="translate(60.8364 12.619)" fill="#F4F4E6"/>
<path d="M7.54545 3.04762H1.50909C0.675695 3.04762 0 2.36533 0 1.52381C0 0.682286 0.675695 0 1.50909 0H7.54545C8.37885 0 9.05455 0.682286 9.05455 1.52381C9.05455 2.36533 8.37885 3.04762 7.54545 3.04762Z" transform="translate(59.3274 29.381)" fill="#F4F4E6"/>
<path d="M0 0H6.03636V6.09524H0V0Z" transform="translate(81.9636 30.9048)" fill="#F4F4E6"/>
<path d="M16.6 3.04762H1.50909C0.675695 3.04762 0 2.36533 0 1.52381C0 0.682286 0.675695 0 1.50909 0H16.6C17.4334 0 18.1091 0.682286 18.1091 1.52381C18.1091 2.36533 17.4334 3.04762 16.6 3.04762Z" transform="translate(5 11.0952)" fill="#F4F4E6"/>
<path d="M16.6 3.04762H1.50909C0.675695 3.04762 0 2.36533 0 1.52381C0 0.682286 0.675695 0 1.50909 0H16.6C17.4334 0 18.1091 0.682286 18.1091 1.52381C18.1091 2.36533 17.4334 3.04762 16.6 3.04762Z" transform="translate(11.0364 17.1904)" fill="#F4F4E6"/>
<path d="M1.50909 6.09524C0.675695 6.09524 0 5.41295 0 4.57143V1.52381C0 0.682286 0.675695 0 1.50909 0C2.34249 0 3.01818 0.682286 3.01818 1.52381V4.57143C3.01818 5.41295 2.34249 6.09524 1.50909 6.09524Z" transform="translate(47.2546 5)" fill="#F4F4E6"/>
<path d="M1.50909 15.2381C0.675695 15.2381 0 14.5558 0 13.7143V1.52381C0 0.682286 0.675695 0 1.50909 0C2.34249 0 3.01818 0.682286 3.01818 1.52381V13.7143C3.01818 14.5558 2.34249 15.2381 1.50909 15.2381Z" transform="translate(47.2546 14.1428)" fill="#F4F4E6"/>
<path d="M9 18C13.9706 18 18 13.9706 18 9C18 4.02944 13.9706 0 9 0C4.02944 0 0 4.02944 0 9C0 13.9706 4.02944 18 9 18Z" transform="translate(6 39)" fill="#AABECE"/>
<path d="M9 18C13.9706 18 18 13.9706 18 9C18 4.02944 13.9706 0 9 0C4.02944 0 0 4.02944 0 9C0 13.9706 4.02944 18 9 18Z" transform="translate(30 39)" fill="#AABECE"/>
<path d="M9 18C13.9706 18 18 13.9706 18 9C18 4.02944 13.9706 0 9 0C4.02944 0 0 4.02944 0 9C0 13.9706 4.02944 18 9 18Z" transform="translate(63 39)" fill="#AABECE"/>
<path d="M4.5 9C6.98528 9 9 6.98528 9 4.5C9 2.01472 6.98528 0 4.5 0C2.01472 0 0 2.01472 0 4.5C0 6.98528 2.01472 9 4.5 9Z" transform="translate(11 44)" fill="#7D8D9C"/>
<path d="M4.5 9C6.98528 9 9 6.98528 9 4.5C9 2.01472 6.98528 0 4.5 0C2.01472 0 0 2.01472 0 4.5C0 6.98528 2.01472 9 4.5 9Z" transform="translate(35 44)" fill="#7D8D9C"/>
<path d="M4.5 9C6.98528 9 9 6.98528 9 4.5C9 2.01472 6.98528 0 4.5 0C2.01472 0 0 2.01472 0 4.5C0 6.98528 2.01472 9 4.5 9Z" transform="translate(68 44)" fill="#7D8D9C"/>
<path d="M6.4 8C2.8654 8 0 5.1346 0 1.6C0 0.7164 0.7164 0 1.6 0C2.4836 0 3.2 0.7164 3.2 1.6C3.2 3.3674 4.6326 4.8 6.4 4.8C7.2836 4.8 8 5.5164 8 6.4C8 7.2836 7.2836 8 6.4 8Z" transform="translate(58 54)" fill="#FDBD40"/>
</svg>
