<svg width="75" height="75" viewBox="0 0 58 58" fill="none" xmlns="http://www.w3.org/2000/svg">
<path d="M0 0H58V35H0V0Z" transform="translate(0 23)" fill="#A98258"/>
<path d="M4 2L0 6L4 10L2 12H13V0H2L4 2Z" transform="translate(45 40)" fill="#F4D5BD"/>
<path d="M11.688 5H0.312C0.14 5 0 4.86 0 4.688V2.811C0 1.259 1.259 0 2.811 0H9.189C10.741 0 12 1.259 12 2.811V4.688C12 4.86 11.86 5 11.688 5Z" transform="translate(4)" fill="#F0C419"/>
<path d="M0 0H2V2H0V0Z" transform="translate(6 3)" fill="#AA891D"/>
<path d="M0 0H2V2H0V0Z" transform="translate(9 3)" fill="#AA891D"/>
<path d="M0 0H2V2H0V0Z" transform="translate(12 3)" fill="#AA891D"/>
<path d="M11.688 5H0.312C0.14 5 0 4.86 0 4.688V2.811C0 1.259 1.259 0 2.811 0H9.189C10.741 0 12 1.259 12 2.811V4.688C12 4.86 11.86 5 11.688 5Z" transform="translate(23)" fill="#F0C419"/>
<path d="M0 0H2V2H0V0Z" transform="translate(25 3)" fill="#AA891D"/>
<path d="M0 0H2V2H0V0Z" transform="translate(28 3)" fill="#AA891D"/>
<path d="M0 0H2V2H0V0Z" transform="translate(31 3)" fill="#AA891D"/>
<path d="M11.688 5H0.312C0.14 5 0 4.86 0 4.688V2.811C0 1.259 1.259 0 2.811 0H9.189C10.741 0 12 1.259 12 2.811V4.688C12 4.86 11.86 5 11.688 5Z" transform="translate(42)" fill="#F0C419"/>
<path d="M0 0H2V2H0V0Z" transform="translate(44 3)" fill="#AA891D"/>
<path d="M0 0H2V2H0V0Z" transform="translate(47 3)" fill="#AA891D"/>
<path d="M0 0H2V2H0V0Z" transform="translate(50 3)" fill="#AA891D"/>
<path d="M16 18V16.236C16 14.866 15.226 13.613 14 13C12.774 12.387 12 11.134 12 9.764V0H4V9.764C4 11.134 3.226 12.387 2 13C0.774 13.613 0 14.866 0 16.236V18H16Z" transform="translate(40 5)" fill="#6A3006"/>
<path d="M16 18V16.236C16 14.866 15.226 13.613 14 13C12.774 12.387 12 11.134 12 9.764V0H4V9.764C4 11.134 3.226 12.387 2 13C0.774 13.613 0 14.866 0 16.236V18H16Z" transform="translate(21 5)" fill="#6A3006"/>
<path d="M16 18V16.236C16 14.866 15.226 13.613 14 13C12.774 12.387 12 11.134 12 9.764V0H4V9.764C4 11.134 3.226 12.387 2 13C0.774 13.613 0 14.866 0 16.236V18H16Z" transform="translate(2 5)" fill="#6A3006"/>
<path d="M0 0H10V2H0V0Z" transform="translate(0 54)" fill="#7C5F42"/>
<path d="M0 0H8V2H0V0Z" transform="translate(0 51)" fill="#7C5F42"/>
<path d="M0 0H6V2H0V0Z" transform="translate(0 48)" fill="#7C5F42"/>
<path d="M0 0H4V2H0V0Z" transform="translate(0 45)" fill="#7C5F42"/>
</svg>
