<svg width="75" height="75" viewBox="0 0 50 50" fill="none" xmlns="http://www.w3.org/2000/svg">
<path d="M25 50C38.8071 50 50 38.8071 50 25C50 11.1929 38.8071 0 25 0C11.1929 0 0 11.1929 0 25C0 38.8071 11.1929 50 25 50Z" fill="#FFCF4B"/>
<path d="M40 1.50621V37.0542C39.0769 38.2685 38.0472 39.3973 36.9231 40.4243C34.7344 42.4269 32.1928 44.0456 29.4021 45.1755C26.4974 46.3528 23.3241 47 20 47C16.6759 47 13.5026 46.3528 10.5979 45.1755C7.80722 44.0456 5.26564 42.4269 3.07693 40.4243C1.95284 39.3973 0.923069 38.2684 0 37.0542V1.50621C0 0.674318 0.672082 0 1.50121 0H38.4989C39.3279 0 40 0.674318 40 1.50621Z" transform="translate(5 3)" fill="#6E7789"/>
<path d="M34 0V37.4113C31.8013 39.4178 29.2482 41.0397 26.4448 42.1719C23.5269 43.3515 20.3392 44 17 44C13.6608 44 10.4731 43.3515 7.55518 42.1719C4.75179 41.0397 2.19866 39.4178 0 37.4113V0H34Z" transform="translate(8 6)" fill="#FCFCFC"/>
<path d="M3.12199 0H1.12947C0.505687 0 0 0.480789 0 1.07386V5.88138C0 6.47454 0.505687 6.95524 1.12947 6.95524H3.12199C3.74587 6.95524 4.25146 6.47445 4.25146 5.88138V1.07386C4.25146 0.480789 3.74577 0 3.12199 0Z" transform="translate(35.6853)" fill="#F7B12F"/>
<path d="M3.12199 0H1.12947C0.505687 0 0 0.480789 0 1.07386V5.88138C0 6.47454 0.505687 6.95524 1.12947 6.95524H3.12199C3.74587 6.95524 4.25146 6.47445 4.25146 5.88138V1.07386C4.25146 0.480789 3.74567 0 3.12199 0Z" transform="translate(9.06323)" fill="#F7B12F"/>
<path fill-rule="evenodd" clip-rule="evenodd" d="M0.901611 0C0.357666 0 0.000244141 0.328979 0.000244141 0.702759L0 10.2135C0 10.6919 0.605957 10.9312 1.21216 10.9312C1.81812 10.9312 2.42432 10.692 2.42432 10.2135V6.9834H3.96265C6.10693 6.9834 7.78516 6.02637 7.78516 3.51416V3.43945C7.78516 0.927124 6.16919 0 4.11792 0H0.901611ZM2.42432 5.18896V2.03381L3.96265 2.03369C4.83301 2.03369 5.36133 2.51221 5.36133 3.52917V3.6936C5.36133 4.71045 4.83301 5.18896 3.96265 5.18896H2.42432Z" transform="translate(17.5986 11.0916)" fill="#F44E72"/>
<path fill-rule="evenodd" clip-rule="evenodd" d="M0 3.52905V7.49182C0 10.0638 1.6626 11.021 3.80713 11.021C5.95142 11.021 7.62964 10.0638 7.62964 7.49182V3.52905C7.62964 0.957031 5.95166 0 3.80713 0C1.6626 0 0 0.957031 0 3.52905ZM3.80688 2.03357C4.67725 2.03357 5.20557 2.49719 5.20557 3.52905V7.49182C5.20557 8.52356 4.67725 8.98718 3.80688 8.98718C2.93677 8.98718 2.42407 8.52356 2.42407 7.49182V3.52905C2.42407 2.49707 2.93677 2.03357 3.80688 2.03357Z" transform="translate(26.3159 11.0917)" fill="#F44E72"/>
<path d="M5.2055 8.09003C5.2055 6.28064 0.2796 6.59465 0.2796 3.09547C0.2796 0.852347 2.3152 0 4.2575 0C5.0811 0 7.3498 0.149548 7.3498 1.316C7.3498 1.71971 7.0701 2.54213 6.3864 2.54213C5.827 2.54213 5.5318 1.97386 4.2575 1.97386C3.1542 1.97386 2.7036 2.40759 2.7036 2.87105C2.7036 4.36654 7.6295 4.08236 7.6295 7.8506C7.6295 10.0039 5.9979 11.1703 3.7448 11.1703C1.7092 11.1703 0 10.2133 0 9.22627C0 8.71787 0.4661 7.97013 1.0566 7.97013C1.7869 7.97013 2.2531 9.07672 3.6982 9.07672C4.413 9.07692 5.2055 8.80775 5.2055 8.09003Z" transform="translate(17.0552 22.769)" fill="#F44E72"/>
<path d="M7.49001 0C8.00594 0 8.22491 0.542878 8.22491 1.04053C8.22491 1.61359 7.95904 2.11124 7.49001 2.11124H5.33213V10.2997C5.33213 10.7823 4.72231 11.0235 4.1124 11.0235C3.50249 11.0235 2.89268 10.7822 2.89268 10.2997V2.11124H0.734893C0.265862 2.11124 0 1.61359 0 1.04053C0 0.542878 0.218868 0 0.734893 0H7.49001V0Z" transform="translate(24.7144 23.0222)" fill="#FFCF4B"/>
<path d="M2.43935 4.59922H4.78491C5.25394 4.59922 5.5198 5.03661 5.5198 5.51913C5.5198 5.92624 5.30093 6.40885 4.78491 6.40885H2.43935V8.97243H6.62994C7.09897 8.97243 7.36483 9.45504 7.36483 10.013C7.36483 10.4956 7.14596 11.0233 6.62994 11.0233H1.06335C0.531623 11.0233 0 10.7821 0 10.2995V0.723772C0 0.24116 0.531623 0 1.06335 0H6.62994C7.14586 0 7.36483 0.527835 7.36483 1.01025C7.36483 1.56817 7.09907 2.05078 6.62994 2.05078H2.43935V4.59922Z" transform="translate(17.0996 34.8888)" fill="#FFCF4B"/>
<path fill-rule="evenodd" clip-rule="evenodd" d="M0.757568 0C0.299805 0 0 0.328247 0 0.701416V10.194C0 10.6715 0.615234 10.9103 1.23071 10.9103C1.84619 10.9103 2.46167 10.6716 2.46167 10.194V6.59692H3.50293L5.66479 10.5671C5.83838 10.8807 6.13818 11 6.45361 11C7.17944 11 8 10.3732 8 9.79114C8 9.71643 7.98438 9.61194 7.92114 9.52246L5.99609 6.22375C7.10059 5.82092 7.90527 4.86572 7.90527 3.19397C7.90527 0.76123 6.1853 0 4.02368 0H0.757568ZM2.46143 4.80615V2.02991H4.02368C4.90723 2.02991 5.4436 2.37329 5.4436 3.41809C5.4436 4.46277 4.90723 4.80615 4.02368 4.80615H2.46143Z" transform="translate(25 35)" fill="#51B0E0"/>
</svg>
