<svg width="75" height="75" viewBox="0 0 66 64" fill="none" xmlns="http://www.w3.org/2000/svg">
<path d="M64.9269 6.28771H35.8035V0H30.1965V6.28771H1.07314C0.480305 6.28771 0 6.77396 0 7.37385C0 7.97373 0.480305 8.45998 1.07314 8.45998H30.1965V24H35.8035V8.45998H64.9269C65.5197 8.45998 66 7.97373 66 7.37385C66 6.77396 65.5196 6.28771 64.9269 6.28771Z" transform="translate(0 40)" fill="#333E48"/>
<path opacity="0.2" d="M0 0H6V5H0V0Z" transform="translate(30 40)" fill="black"/>
<path opacity="0.2" d="M0 0H6V3H0V0Z" transform="translate(30 52)" fill="black"/>
<path d="M0 0V4.9001C0 5.50489 0.478896 6 1.06442 6H17.9356C18.5208 6 19 5.50502 19 4.9001V0H0Z" transform="translate(23 47)" fill="#D1D3D3"/>
<path d="M1.13317 1.87179C1.759 1.87179 2.26633 1.45278 2.26633 0.935895C2.26633 0.419014 1.759 0 1.13317 0C0.507336 0 0 0.419014 0 0.935895C0 1.45278 0.507336 1.87179 1.13317 1.87179Z" transform="translate(31.3663 49.094)" fill="#A4A9AD"/>
<path d="M1.13317 1.87179C1.759 1.87179 2.26633 1.45278 2.26633 0.935895C2.26633 0.419014 1.759 0 1.13317 0C0.507336 0 0 0.419014 0 0.935895C0 1.45278 0.507336 1.87179 1.13317 1.87179Z" transform="translate(26.057 49.094)" fill="#A4A9AD"/>
<path d="M1.13317 1.87179C1.759 1.87179 2.26633 1.45278 2.26633 0.935895C2.26633 0.419014 1.759 0 1.13317 0C0.507336 0 0 0.419014 0 0.935895C0 1.45278 0.507336 1.87179 1.13317 1.87179Z" transform="translate(36.677 49.094)" fill="#A4A9AD"/>
<path opacity="0.2" d="M0 0H19V3H0V0Z" transform="translate(23 47)" fill="black"/>
<path d="M1 9C0.447568 9 0 8.50158 0 7.88667V1.11333C0 0.498425 0.447568 0 1 0C1.55231 0 2 0.498425 2 1.11333V7.8868C2 8.50158 1.55243 9 1 9Z" transform="translate(11 1)" fill="#A4A9AD"/>
<path opacity="0.2" d="M0 0H2V2H0V0Z" transform="translate(11 3)" fill="black"/>
<path d="M11.9999 0.856923C11.9999 0.385594 11.6354 0 11.1897 0H0.8102C0.364702 0 0 0.385594 0 0.856923V3.14308C0 3.61441 0.36457 4 0.8102 4H11.1898C11.6354 4 12 3.61441 12 3.14308V0.856923H11.9999Z" transform="translate(7)" fill="#333E48"/>
<path d="M1 9C0.447568 9 0 8.50158 0 7.88667V1.11333C0 0.498425 0.447568 0 1 0C1.55243 0 2 0.498425 2 1.11333V7.8868C2 8.50158 1.55231 9 1 9Z" transform="translate(32 1)" fill="#A4A9AD"/>
<path opacity="0.2" d="M0 0H2V2H0V0Z" transform="translate(32 3)" fill="black"/>
<path d="M11.9999 0.856923C11.9999 0.385594 11.6354 0 11.1897 0H0.8102C0.364702 0 0 0.385594 0 0.856923V3.14308C0 3.61441 0.36457 4 0.8102 4H11.1898C11.6354 4 12 3.61441 12 3.14308V0.856923H11.9999Z" transform="translate(27)" fill="#333E48"/>
<path d="M1 9C0.447568 9 0 8.50158 0 7.88667V1.11333C0 0.498425 0.447568 0 1 0C1.55243 0 2 0.498425 2 1.11333V7.8868C1.99988 8.50158 1.55219 9 1 9Z" transform="translate(52 1)" fill="#A4A9AD"/>
<path opacity="0.2" d="M0 0H2V2H0V0Z" transform="translate(52 3)" fill="black"/>
<path d="M12 0.856923C12 0.385594 11.6356 0 11.1898 0H0.8102C0.364702 0 0 0.385594 0 0.856923V3.14308C0 3.61441 0.36457 4 0.8102 4H11.1898C11.6354 4 12 3.61441 12 3.14308V0.856923Z" transform="translate(48)" fill="#333E48"/>
<path d="M64 1.59783C64 0.719113 63.2876 0 62.4169 0H1.58308C0.712407 0 0 0.718983 0 1.59783V34.4023C0 35.281 0.712407 36 1.58308 36H62.4168C63.2875 36 63.9999 35.281 63.9999 34.4023V1.59783H64Z" transform="translate(1 8)" fill="#00B3E3"/>
<path d="M0 31H29.4298C30.2934 31 31 30.2934 31 29.4298V0C13.8791 0 0 13.8792 0 31Z" transform="translate(34 12)" fill="#0071CE"/>
<path d="M19.7803 2.11909H1.08587C0.486 2.11909 0 1.64475 0 1.05955C0 0.474345 0.486 0 1.08587 0H19.78C20.3799 0 20.8659 0.474345 20.8659 1.05955C20.8659 1.64475 20.3799 2.11909 19.7803 2.11909Z" transform="translate(8.1123 17.0841)" fill="white"/>
<path d="M14.2941 2.11909H1.08587C0.486 2.11909 0 1.64475 0 1.05955C0 0.474345 0.486 0 1.08587 0H14.2942C14.8941 0 15.3801 0.474345 15.3801 1.05955C15.38 1.64462 14.8938 2.11909 14.2941 2.11909Z" transform="translate(8.11255 21.8804)" fill="white"/>
</svg>
