<svg width="704" height="464" viewBox="0 0 704 464" fill="none" xmlns="http://www.w3.org/2000/svg">
<g filter="url(#filter0_d)">
<path fill-rule="evenodd" clip-rule="evenodd" d="M67.7252 243.399L552.425 270L575 130.345L0 0L67.7252 243.399Z" transform="translate(82 39)" fill="white"/>
<path fill-rule="evenodd" clip-rule="evenodd" d="M100.094 173.99L51.6707 0H0L87.2348 225L152 203.824L105.278 174.274L100.094 173.99Z" transform="translate(48 109)" fill="white"/>
<path fill-rule="evenodd" clip-rule="evenodd" d="M15.174 0L0 55L312 16.2327L15.174 0Z" transform="translate(303 292)" fill="#FFED00"/>
<path fill-rule="evenodd" clip-rule="evenodd" d="M0 15.9545L144 54L128.768 0L0 15.9545Z" transform="translate(311 332)" fill="white"/>
<path fill-rule="evenodd" clip-rule="evenodd" d="M41.3333 0L0 70L96 13.2075L41.3333 0Z" transform="translate(358 371)" fill="#FFED00"/>
<path fill-rule="evenodd" clip-rule="evenodd" d="M0.31 0.802116L0 2L0.518 0L0.31 0.802116Z" transform="translate(302 345)" fill="black"/>
<path fill-rule="evenodd" clip-rule="evenodd" d="M33.9644 0L53.543 70.2416H0L88.446 298.022L88.9007 299.194L156.577 277.1L155.828 275.333L141.147 248.42L271.044 255.537L256.258 309.218L256.052 309.97L261.415 311.645L350.984 335.422L307.941 409L406.487 350.155L409.793 348.181L394.872 295.034L577.35 272.32L576.835 272.29L588.815 272.947L590.009 273.014L590.433 270.394L590.709 268.69L613 131.031L36.1354 0.491813L33.9644 0ZM104.669 243.761L37.7214 3.57562L609.976 133.073L587.766 270.226L104.669 243.761ZM3.88464 72.9014H54.2849L102.618 246.311L105.105 246.446L151.727 275.886L90.4694 295.887L3.88464 72.9014ZM273.76 255.687L562.406 271.501L259.003 309.268L273.76 255.687ZM362.481 335.724L268.466 310.769L308.309 305.808L392.203 295.365L406.551 346.471L362.481 335.724ZM353.559 336.286L361.879 338.313L402.899 349.203L315.46 401.414L353.559 336.286ZM590.433 270.394L590.385 270.695L590.513 269.905L590.433 270.394Z" transform="translate(46 37)" fill="black"/>
<path fill-rule="evenodd" clip-rule="evenodd" d="M41 25L0 0L27.7039 1.4667L41 25Z" transform="translate(157 284)" fill="#FFED00"/>
<path fill-rule="evenodd" clip-rule="evenodd" d="M15.2444 46.3973L26.3464 48.6916C29.8915 49.3834 32.5311 49.1462 34.2837 47.9865C36.0297 46.832 36.652 44.8678 36.1533 42.0858L32.2518 20.2989C31.7293 17.387 30.2785 14.829 27.8863 12.6222C25.4741 10.3995 22.3971 8.79713 18.6392 7.82296L7.24725 4.86733C6.93609 4.78648 6.7978 4.84082 6.83503 5.0277L14.7417 46.0368C14.775 46.2157 14.9425 46.335 15.2444 46.3973ZM9.25647 47.5504L0.0147131 0.494832C-0.0783693 0.0203401 0.270025 -0.113525 1.06521 0.0958877L18.1472 4.59694C23.7095 6.06282 28.2519 8.33455 31.8063 11.3989C35.3195 14.4287 37.3953 17.8297 38.0588 21.6071L41.8872 43.4006C42.5321 47.0626 41.5348 49.6326 38.8939 51.1303C36.2357 52.6373 32.2598 52.8573 26.9182 51.7758L10.529 48.453C9.76842 48.2992 9.34423 47.9984 9.25647 47.5504Z" transform="translate(248.001 107.001)" fill="#27A1DD"/>
<path fill-rule="evenodd" clip-rule="evenodd" d="M29.055 42.6285C30.8222 41.71 31.5416 40.1832 31.2172 38.0413L27.6401 14.4466C27.305 12.2358 26.0232 10.1696 23.7812 8.2411C21.5233 6.29939 18.7521 4.89712 15.461 4.04092C12.2031 3.19399 9.638 3.2205 7.78433 4.12707C5.92135 5.04027 5.17669 6.64532 5.55301 8.93561L9.57417 33.3613C9.93853 35.5774 11.259 37.5867 13.5222 39.3839C15.7695 41.1679 18.4729 42.382 21.6244 43.0314C24.8091 43.6875 27.2811 43.551 29.055 42.6285ZM10.0595 40.6788C6.71119 38.1142 4.75912 35.2447 4.22855 32.0823L0.139571 7.7096C-0.416264 4.39611 0.688757 2.1151 3.44267 0.883806C6.17929 -0.340861 10.0382 -0.28917 14.9836 1.01635C19.8558 2.30463 23.9102 4.32056 27.1641 7.05485C30.3847 9.75866 32.2171 12.6785 32.6838 15.825L36.1266 38.985C36.5734 41.9923 35.5202 44.1236 32.9618 45.3959C30.3874 46.6776 26.7704 46.8512 22.0778 45.9022C17.3851 44.9546 13.3706 43.217 10.0595 40.6788Z" transform="translate(299.129 122.727)" fill="#27A1DD"/>
<path fill-rule="evenodd" clip-rule="evenodd" d="M25.8448 41.0535C27.4578 39.9971 28.0988 38.1681 27.7676 35.5557C27.4299 32.897 26.2517 30.6133 24.2172 28.6994C22.1694 26.7723 19.4939 25.4204 16.1789 24.6517L8.06343 22.7683C7.82674 22.714 7.72036 22.7656 7.74296 22.9234L10.0541 39.6578C10.0767 39.8129 10.203 39.9136 10.4357 39.9627L18.4381 41.6168C21.7625 42.3046 24.2239 42.1138 25.8448 41.0535ZM5.15373 4.19551L7.33186 19.9518C7.35446 20.1109 7.48212 20.2169 7.71881 20.2739L15.6787 22.1493C19.0589 22.9459 21.5695 22.881 23.2303 21.9598C24.8819 21.044 25.5534 19.3687 25.2436 16.9259C24.9231 14.3997 23.7423 12.193 21.6918 10.3043C19.6241 8.40232 16.914 7.01198 13.5471 6.13854L5.48085 4.04707C5.24149 3.98345 5.13245 4.03514 5.15373 4.19551ZM29.3712 43.7957C27.0256 45.1224 23.6001 45.3345 19.0564 44.4133L6.70965 41.911C6.12191 41.7917 5.80277 41.5386 5.74825 41.1489L0.00772137 0.440651C-0.0507876 0.0324289 0.223141 -0.0921584 0.832166 0.0668892L13.0831 3.29556C17.9035 4.56661 21.7504 6.47651 24.6506 9.01862C27.5189 11.5355 29.1518 14.4673 29.5694 17.8285C30.1186 22.2487 28.1106 24.6517 23.5057 25.0612C23.398 25.0732 23.3328 25.0957 23.3102 25.1275C23.2863 25.1606 23.3062 25.203 23.3674 25.2534C25.9378 26.6742 27.9737 28.3628 29.4789 30.3191C30.9749 32.2621 31.8672 34.4013 32.1571 36.738C32.6304 40.1283 31.7049 42.4756 29.3712 43.7957Z" transform="translate(343.34 132.093)" fill="#27A1DD"/>
<path fill-rule="evenodd" clip-rule="evenodd" d="M4.55565 3.93881L6.33352 19.2816C6.35081 19.4314 6.46384 19.5308 6.67527 19.5798L14.6165 21.446C17.1165 22.0331 19.0446 21.8118 20.4089 20.7859C21.7666 19.764 22.3237 18.1086 22.0817 15.8117C21.8331 13.4724 20.8783 11.4008 19.2095 9.5956C17.5273 7.77716 15.4237 6.53659 12.8932 5.88052L4.84952 3.79434C4.63676 3.73867 4.53836 3.78771 4.55565 3.93881ZM25.1043 43.0301L14.9796 24.0464C14.9157 23.9258 14.808 23.8463 14.6538 23.8118L6.95852 22.0318C6.74709 21.9841 6.65135 22.0345 6.66863 22.1829L8.6832 39.584C8.72708 39.9472 8.48773 40.0771 7.96913 39.9711L5.39207 39.4488C4.86682 39.3415 4.58359 39.1069 4.54103 38.7411L0.00526186 0.419885C-0.0399496 0.036845 0.206054 -0.0850915 0.748591 0.0580514L13.0607 3.30395C16.6737 4.25823 19.6616 5.98258 22.0392 8.46902C24.3955 10.9316 25.7239 13.6858 26.0391 16.7355C26.2944 19.1981 25.7917 21.1014 24.5311 22.4559C23.2666 23.8145 21.3903 24.4864 18.889 24.4719C18.643 24.4851 18.5779 24.5593 18.6909 24.6906L28.9645 43.661L29.0589 43.8863C29.0842 44.1315 28.8794 44.2097 28.4419 44.1209L26.0298 43.6318C25.5896 43.543 25.2811 43.3415 25.1043 43.0301Z" transform="translate(381.466 142.015)" fill="#27A1DD"/>
<path fill-rule="evenodd" clip-rule="evenodd" d="M19.4834 34.9349C20.7945 34.1198 21.3703 32.8222 21.2147 31.0356L19.5046 11.4131C19.3451 9.57876 18.498 7.89683 16.9555 6.35937C15.4037 4.81395 13.4649 3.73508 11.1352 3.12937C8.8334 2.53162 6.99702 2.63633 5.63802 3.4488C4.27369 4.26657 3.6793 5.62112 3.8628 7.50981L5.8162 27.7062C5.99306 29.5445 6.86404 31.184 8.41985 32.6248C9.96635 34.0549 11.8639 34.9999 14.1072 35.4624C16.3784 35.9303 18.1682 35.754 19.4834 34.9349ZM5.88673 33.7951C3.58759 31.7434 2.29906 29.404 2.04109 26.7877L0.0477995 6.66288C-0.222139 3.93389 0.651505 2.00942 2.66209 0.900059C4.6607 -0.205322 7.41594 -0.290147 10.9065 0.632329C14.3546 1.5442 17.1922 3.08961 19.4355 5.26327C21.6575 7.41571 22.8729 9.79612 23.095 12.4098L24.7333 31.6983C24.946 34.2086 24.1069 36.0244 22.2054 37.1563C20.2959 38.2948 17.6763 38.5294 14.3266 37.8534C10.9837 37.1775 8.16592 35.8282 5.88673 33.7951Z" transform="translate(414.445 152.505)" fill="#27A1DD"/>
<path fill-rule="evenodd" clip-rule="evenodd" d="M6.17088 33.3309L12.3994 34.6178C14.4007 35.0009 15.9339 34.7292 17.0057 33.8054C18.0735 32.8855 18.5375 31.4051 18.3953 29.3626L17.2942 13.4247C17.148 11.3028 16.4485 9.48432 15.1919 7.96939C13.9273 6.44519 12.2518 5.41005 10.1601 4.86664L3.85047 3.2311C3.6776 3.18604 3.59649 3.23243 3.60713 3.36629L5.9036 33.083C5.91424 33.2142 6.002 33.2964 6.17088 33.3309ZM2.70282 34.3978L0.0021043 0.382835C-0.0231609 0.0422079 0.178961 -0.0717763 0.615118 0.0435333L10.051 2.52998C13.1467 3.34642 15.6267 4.80303 17.5056 6.89318C19.3686 8.9661 20.3872 11.381 20.572 14.1405L21.6451 30.1194C21.8246 32.814 21.1132 34.761 19.5042 35.9697C17.8886 37.1838 15.5801 37.49 12.5656 36.879L3.37568 35.0155C2.95149 34.9306 2.72809 34.7239 2.70282 34.3978Z" transform="translate(446.111 159.142)" fill="#27A1DD"/>
<path fill-rule="evenodd" clip-rule="evenodd" d="M15.2381 31.0704C16.3365 30.3149 16.8431 29.138 16.7593 27.5356L15.8338 9.95022C15.7474 8.30938 15.0932 6.81831 13.8645 5.47303C12.6291 4.12113 11.0667 3.196 9.17313 2.70428C7.3035 2.21786 5.79822 2.35172 4.66661 3.1072C3.52967 3.86798 3.0124 5.09132 3.11346 6.7759L4.20519 24.8212C4.30359 26.4647 4.97511 27.9213 6.21444 29.1857C7.44578 30.4422 8.97898 31.2586 10.8087 31.635C12.6624 32.0168 14.1371 31.8272 15.2381 31.0704ZM4.11079 30.2778C2.27972 28.4779 1.2864 26.405 1.1388 24.0657L0.0191491 6.09861C-0.133772 3.6665 0.629504 1.92626 2.29834 0.891121C3.95919 -0.138712 6.21445 -0.273902 9.04814 0.474947C11.8499 1.21584 14.1411 2.53726 15.9283 4.43788C17.7008 6.32127 18.6423 8.4313 18.7606 10.772L19.6396 28.0684C19.754 30.3229 19.0159 31.9704 17.4242 33.0214C15.8232 34.0764 13.6637 34.3309 10.9297 33.7782C8.20375 33.2282 5.92722 32.0645 4.11079 30.2778Z" transform="translate(474.228 167.97)" fill="#27A1DD"/>
<path fill-rule="evenodd" clip-rule="evenodd" d="M6.00204 6.13882L2.29736 0.500584C2.2189 0.357442 2.18034 0.255386 2.17768 0.193092C2.16837 0.00886227 2.308 -0.0441536 2.59389 0.0366956L4.19092 0.483354C4.43826 0.5536 4.65367 0.7206 4.84117 0.984354L7.51795 5.20044C7.55253 5.24153 7.60572 5.27069 7.67619 5.28924C7.74667 5.30912 7.79853 5.3078 7.83177 5.28659L10.1336 2.46615C10.2985 2.30312 10.5019 2.25541 10.7426 2.32301L12.188 2.72858C12.3941 2.78557 12.5231 2.87437 12.579 2.99366C12.6348 3.11427 12.6149 3.2362 12.5178 3.35681L9.24131 7.01491C9.07642 7.17926 8.87297 7.2283 8.63095 7.16335L6.64564 6.62789C6.40096 6.56162 6.18687 6.3986 6.00204 6.13882ZM3.40106 38.2042C1.78143 36.4546 0.914429 34.4188 0.80539 32.1047L0.760178 31.1226C0.745551 30.8257 0.914429 30.7143 1.26681 30.7925L2.95027 31.1623C3.3 31.2392 3.48084 31.4261 3.49414 31.7216L3.53536 32.6097C3.61382 34.3512 4.19891 35.8609 5.28398 37.1359C6.36374 38.403 7.70546 39.2009 9.30913 39.5309C10.9008 39.8583 12.1934 39.625 13.1933 38.8324C14.1893 38.0411 14.6574 36.8417 14.5962 35.226C14.555 34.1577 14.2771 33.1783 13.7611 32.2876C13.2439 31.3956 12.5856 30.5712 11.7865 29.8117C10.982 29.0496 9.68811 27.9125 7.89428 26.3896C6.08449 24.8548 4.66831 23.5811 3.65504 22.5724C2.63645 21.5598 1.79073 20.4438 1.1232 19.2258C0.451677 18.0025 0.0806768 16.6466 0.0115299 15.1595C-0.0988392 12.8188 0.583322 11.1714 2.05136 10.2264C3.51409 9.28798 5.43823 9.13556 7.81051 9.76247C10.3344 10.4291 12.3582 11.6883 13.8941 13.5306C15.4167 15.3609 16.2172 17.4458 16.3023 19.7944L16.3422 20.8918C16.3528 21.1861 16.1919 21.2908 15.8568 21.2086L14.2465 20.8123C13.9087 20.7301 13.7345 20.5419 13.7239 20.2477L13.68 19.1423C13.6149 17.4021 13.051 15.8606 11.9886 14.5153C10.9208 13.1634 9.55912 12.2701 7.89827 11.838C6.33316 11.4311 5.06723 11.573 4.10716 12.2661C3.14708 12.962 2.70294 14.1734 2.78007 15.8951C2.82661 16.9223 3.07926 17.8633 3.53536 18.7182C3.98881 19.5717 4.64969 20.4359 5.51802 21.3093C6.3797 22.1801 7.64429 23.3266 9.30381 24.7448C11.3689 26.5115 12.9061 27.8966 13.9313 28.9131C14.9486 29.9231 15.7305 30.9489 16.281 31.9894C16.8302 33.0285 17.1267 34.1935 17.1733 35.4858C17.2584 37.8079 16.5922 39.5137 15.172 40.6098C13.7452 41.7112 11.8396 42.024 9.44344 41.5389C7.02329 41.0498 5.00607 39.9418 3.40106 38.2042Z" transform="translate(499.197 164.953)" fill="#27A1DD"/>
<path fill-rule="evenodd" clip-rule="evenodd" d="M0.953815 29.5289L0.000384817 0.337053C-0.00892342 0.0454653 0.150646 -0.0565903 0.477765 0.0295605L2.08942 0.453688C2.41388 0.538513 2.5801 0.728045 2.58808 1.01698L3.43646 28.3241C3.43912 28.4368 3.5056 28.507 3.63326 28.5322L14.5266 30.7841C14.8297 30.8477 14.9853 31.016 14.992 31.2877L15.0172 32.3918C15.0239 32.6635 14.875 32.7682 14.5718 32.7072L1.44715 30.0471C1.12801 29.9822 0.963123 29.8099 0.953815 29.5289Z" transform="translate(521.707 179.043)" fill="#27A1DD"/>
<path fill-rule="evenodd" clip-rule="evenodd" d="M0.591953 28.3608L0.000214925 0.326033C-0.00643382 0.0463744 0.141168 -0.0530304 0.444351 0.0264934L1.93899 0.418811C2.23951 0.49966 2.39243 0.678589 2.39642 0.955597L2.94561 28.8393C2.9496 29.107 2.80598 29.2131 2.50945 29.1521L1.0454 28.8552C0.748863 28.7956 0.598602 28.6312 0.591953 28.3608Z" transform="translate(540.048 183.87)" fill="#27A1DD"/>
<path fill-rule="evenodd" clip-rule="evenodd" d="M2.11172 26.3139C0.86309 24.7208 0.223481 22.8003 0.200875 20.5524L8.31129e-05 0.314957C-0.00390613 0.0472268 0.135717 -0.0508526 0.417624 0.024695L1.80189 0.387854C2.07981 0.462076 2.22076 0.633052 2.22209 0.899457L2.39629 21.2655C2.41092 22.852 2.83777 24.2172 3.6795 25.3623C4.51458 26.5021 5.6063 27.2086 6.95201 27.4856C8.28841 27.7613 9.36949 27.5068 10.2006 26.7275C11.029 25.9495 11.4412 24.7858 11.4373 23.2337L11.3827 3.30505C11.3814 3.04395 11.513 2.94852 11.7817 3.01877L13.0968 3.36602C13.3614 3.43494 13.4957 3.60062 13.4957 3.86039L13.5223 23.4604C13.525 25.6115 12.9266 27.2165 11.7258 28.2795C10.5184 29.3478 8.93466 29.6844 6.96132 29.2868C4.96935 28.8839 3.35238 27.8951 2.11172 26.3139Z" transform="translate(557.782 188.539)" fill="#27A1DD"/>
<path fill-rule="evenodd" clip-rule="evenodd" d="M45.7406 46.9734C52.6167 47.8866 53.1194 46.5188 52.1699 42.1794L48.7817 26.6856C47.7831 22.1196 46.6275 20.5675 39.5746 19.3919L29.0908 17.645L35.5188 45.6149L45.7406 46.9734ZM0 0L41.5054 7.55344C62.691 11.409 68.7188 16.0612 71.2918 28.6286L75.0537 47.0012C77.5057 58.9775 73.204 61.9742 52.9878 59.5898L38.334 57.8602L44.8511 86.2131L20.667 84.2064L0 0Z" transform="translate(178.825 156.561)" fill="#27A1DD"/>
<path fill-rule="evenodd" clip-rule="evenodd" d="M40.5107 23.6186C39.7807 19.482 39.0294 18.1169 33.1718 17.1414L23.7466 15.5708L27.5324 35.9156L36.7914 37.2066C42.371 37.9859 42.8245 36.7321 42.125 32.7678L40.5107 23.6186ZM66.6563 68.6781C67.3744 73.0453 68.5313 77.2362 71.1269 80.7631L52.2804 79.1991C50.0544 76.7789 49.1542 72.6066 48.3802 68.2261L46.1064 55.3353C45.3524 51.0583 43.6211 48.8422 37.2117 48.043L29.6148 47.0966L35.3288 77.7915L15.1631 76.1175L0 0L34.878 6.346C52.5025 9.55346 57.6193 13.7338 59.4943 25.1401L60.7602 32.8235C62.0926 40.9349 60.4158 44.3531 53.0437 44.8567C60.9171 47.3697 63.8399 51.5566 65.1271 59.3778L66.6563 68.6781Z" transform="translate(255.929 170.593)" fill="#27A1DD"/>
<path fill-rule="evenodd" clip-rule="evenodd" d="M0 0L17.9729 3.27108L27.8848 70.5442L10.9505 69.138L0 0Z" transform="translate(322.927 182.784)" fill="#27A1DD"/>
<path fill-rule="evenodd" clip-rule="evenodd" d="M21.4036 36.8381C19.4423 32.3105 18.1098 28.4722 16.5647 24.1156C17.4064 28.3728 18.3213 32.1568 18.8971 36.5107L22.9807 67.3765L9.35478 66.2447L0 0L20.8225 3.78798L32.7916 33.6068C34.5043 37.9276 35.9152 41.9965 37.1931 46.1066C36.5761 42.0787 35.7011 38.0853 35.1852 33.8493L31.7757 5.78138L44.7208 8.13794L51.7113 69.7609L35.2636 68.3958L21.4036 36.8381Z" transform="translate(350.812 187.86)" fill="#27A1DD"/>
<path fill-rule="evenodd" clip-rule="evenodd" d="M15.8081 61.9066L10.4864 11.0618L1.04917 9.48852L0 0L32.0988 5.84102L32.9086 14.8007L24.1669 13.3428L28.934 62.9961L15.8081 61.9066Z" transform="translate(400.068 196.822)" fill="#27A1DD"/>
<path fill-rule="evenodd" clip-rule="evenodd" d="M14.5129 26.211L24.8091 27.6518L25.4208 35.9911L15.1924 34.7135L17.0873 58.4275L5.0464 57.4281L0 0L25.4979 4.64021L26.1109 13.1957L13.3028 11.0604L14.5129 26.211Z" transform="translate(436.295 203.415)" fill="#27A1DD"/>
<path fill-rule="evenodd" clip-rule="evenodd" d="M11.4771 39.4014L18.1657 40.141L17.8838 38.5558C15.7442 26.6312 13.9863 16.6656 12.8839 8.18964C12.7217 16.4707 12.2696 26.1607 11.5675 37.8388L11.4771 39.4014ZM19.8266 47.6652L10.6087 46.7746L9.93189 54.0523L0 53.2279L5.37351 0L20.5978 2.7714L31.7039 55.8602L21.4595 55.0093L19.8266 47.6652Z" transform="translate(464.622 209.547)" fill="#27A1DD"/>
<path fill-rule="evenodd" clip-rule="evenodd" d="M0 0L10.0875 1.83567L11.0436 24.2998C11.493 22.7889 11.884 21.9154 12.3494 20.8379L19.9555 3.63159L29.0404 5.28436L19.0606 26.8088L30.8954 53.5142L21.4103 52.7269L12.8813 33.6174C12.2284 32.1979 11.8481 31.2317 11.2656 29.5285L12.2191 51.9635L2.50658 51.1577L0 0Z" transform="translate(497.523 214.556)" fill="#27A1DD"/>
<path fill-rule="evenodd" clip-rule="evenodd" d="M7.22585 48.6023L6.17934 8.40699L0.222068 7.41427L0 0L20.3664 3.70581L20.4861 10.794L14.8825 9.85963L15.6857 49.3048L7.22585 48.6023Z" transform="translate(527.287 219.974)" fill="#27A1DD"/>
<path fill-rule="evenodd" clip-rule="evenodd" d="M14.2317 11.5189C14.2157 9.00197 14.0056 8.19083 11.7251 7.81044L10.6107 7.62356C8.29698 7.23654 8.09353 7.98804 8.1188 10.5408L8.37411 35.9897C8.39671 38.4496 8.6108 39.2263 10.8767 39.445L11.9684 39.551C14.1997 39.7671 14.3965 39.0421 14.3806 36.6153L14.2317 11.5189ZM0.00475537 8.2465C-0.108273 0.878615 1.76135 -0.931876 9.0763 0.405449L13.1334 1.14635C20.0255 2.4068 21.8366 4.78456 21.8432 11.788L21.8698 38.3118C21.8765 45.013 20.1239 46.8063 13.4339 46.2549L9.49916 45.9315C2.41027 45.347 0.537985 43.1614 0.430275 36.1262L0.00475537 8.2465Z" transform="translate(550.076 225.037)" fill="#27A1DD"/>
<path fill-rule="evenodd" clip-rule="evenodd" d="M12.7443 11.9259C12.7682 9.55214 12.5914 8.78871 10.5529 8.44941L7.29764 7.90732L7.22583 19.5085L10.4545 19.9592C12.4185 20.2335 12.6698 19.486 12.6924 17.1957L12.7443 11.9259ZM19.2082 37.7022C19.171 40.3 19.3093 42.7904 20.0353 44.8594L13.1459 44.2868C12.4996 42.8925 12.4637 40.4326 12.4903 37.8533L12.5635 30.2986C12.5887 27.8028 12.1127 26.5517 9.84812 26.2694L7.18463 25.938L7.07293 43.7832L0 43.196L0.0651577 0L11.9119 2.1551C18.0806 3.27771 19.6696 5.5057 19.5752 12.1155L19.5114 16.5887C19.4436 21.3323 18.5846 23.4052 15.832 23.9287C18.5606 25.1746 19.3545 27.5709 19.288 32.1873L19.2082 37.7022Z" transform="translate(575.739 228.803)" fill="#27A1DD"/>
<path fill-rule="evenodd" clip-rule="evenodd" d="M48.5335 0L0 96.4567L5.41148 99.1494L53.953 2.69275L48.5335 0Z" transform="translate(498.63)" fill="#27A1DD"/>
<path fill-rule="evenodd" clip-rule="evenodd" d="M3.2852 20.8736L0 15.9037L23.6913 0L26.9765 4.9699L3.2852 20.8736Z" transform="translate(531.698 71.318)" fill="#27A1DD"/>
<path fill-rule="evenodd" clip-rule="evenodd" d="M0 16.0408L1.9182 21.7433L50.4722 5.7025L48.5621 0L0 16.0408Z" transform="translate(653.528 95.6705)" fill="#27A1DD"/>
<path fill-rule="evenodd" clip-rule="evenodd" d="M5.7858 26.092L0 24.1897L8.13756 0L13.9234 1.91035L5.7858 26.092Z" transform="translate(465.562 47.8353)" fill="#27A1DD"/>
<path fill-rule="evenodd" clip-rule="evenodd" d="M16.1329 42.6169L0 2.25234L5.62233 0L21.7553 40.3645L16.1329 42.6169Z" transform="translate(312.406 15.6552)" fill="#27A1DD"/>
<path fill-rule="evenodd" clip-rule="evenodd" d="M5.95425 98.2797L0 96.8114L24.5031 0L30.4574 1.46831L5.95425 98.2797Z" transform="translate(183.614 346.153)" fill="#27A1DD"/>
<path fill-rule="evenodd" clip-rule="evenodd" d="M5.87052 33.9195L0 32.4434L8.05284 0L13.9234 1.47617L5.87052 33.9195Z" transform="translate(224.514 370.506)" fill="#27A1DD"/>
<path fill-rule="evenodd" clip-rule="evenodd" d="M16.1329 42.6169L0 2.25234L5.62233 0L21.7553 40.3645L16.1329 42.6169Z" transform="translate(515.165 387.031)" fill="#27A1DD"/>
<path fill-rule="evenodd" clip-rule="evenodd" d="M0 3.02006L55.7462 99.1494L60.9147 96.1294L5.16847 0L0 3.02006Z" transform="translate(530.828 354.851)" fill="#27A1DD"/>
<path fill-rule="evenodd" clip-rule="evenodd" d="M15.8158 20.0038L0 4.19677L4.19908 0L20.0148 15.8071L15.8158 20.0038Z" transform="translate(595.224 393.989)" fill="#27A1DD"/>
<path fill-rule="evenodd" clip-rule="evenodd" d="M0 5.89975L39.7395 13.9157L40.8999 8.01596L1.16834 0L0 5.89975Z" transform="translate(661.36 312.234)" fill="#27A1DD"/>
<path fill-rule="evenodd" clip-rule="evenodd" d="M3.68856 28.7011L0 23.9176L32.8603 0L36.5488 4.78352L3.68856 28.7011Z" transform="translate(71.3572 385.291)" fill="#27A1DD"/>
<path fill-rule="evenodd" clip-rule="evenodd" d="M0 8.13309L1.91199 13.9157L26.1063 5.78262L24.2024 0L0 8.13309Z" transform="translate(0 328.759)" fill="#27A1DD"/>
</g>
<defs>
<filter id="filter0_d" x="0" y="0" width="704" height="464" filterUnits="userSpaceOnUse" color-interpolation-filters="sRGB">
<feFlood flood-opacity="0" result="BackgroundImageFix"/>
<feColorMatrix in="SourceAlpha" type="matrix" values="0 0 0 0 0 0 0 0 0 0 0 0 0 0 0 0 0 0 255 0"/>
<feOffset dy="10"/>
<feColorMatrix type="matrix" values="0 0 0 0 0 0 0 0 0 0 0 0 0 0 0 0 0 0 0.1 0"/>
<feBlend mode="normal" in2="BackgroundImageFix" result="effect1_dropShadow"/>
<feBlend mode="normal" in="SourceGraphic" in2="effect1_dropShadow" result="shape"/>
</filter>
</defs>
</svg>
